{"title":"Take Shelter 2011 LiMiTED DvDRip XviD Ac3 Feel-Free","uid":6994414,"size":1496033802,"categoryP":"video","categoryS":"movies","magnet":"?xt=urn:btih:673191cb806155b1ad035e4708c3f790cf34405f&amp;dn=Take+Shelter+2011+LiMiTED+DvDRip+XviD+Ac3+Feel-Free&amp;tr=udp%3A%2F%2Ftracker.openbittorrent.com%3A80&amp;tr=udp%3A%2F%2Fopen.demonii.com%3A1337&amp;tr=udp%3A%2F%2Ftracker.coppersurfer.tk%3A6969&amp;tr=udp%3A%2F%2Fexodus.desync.com%3A6969","seeders":0,"leechers":1,"uploader":"HeroMaster","files":-1,"time":1327822229,"description":"Take Shelter 2011 LiMiTED DvDRip XviD Ac3 Feel-Free\n\nGenre: Drama | Thriller\nLanguage: English\nIMDb: http://www.imdb.com/title/tt1675192/\nSourceVD Thanks!\nEncoder: Tony\n\nFormat                                   : AVI\nFormat/Info                              : Audio Video Interleave\nFile size                                : 1.39 GiB\nDuration                                 : 2h 1mn\nOverall bit rate                         : 1 646 Kbps\n\nVideo\nID                                       : 0\nFormat                                   : MPEG-4 Visual\nFormat profile                           : Advanced Simple@L5\nFormat settings, BVOP                    : 1\nFormat settings, QPel                    : No\nFormat settings, GMC                     : No warppoints\nFormat settings, Matrix                  : Default (H.263)\nCodec ID                                 : XVID\nCodec ID/Hint                            : XviD\nDuration                                 : 2h 1mn\nBit rate                                 : 1 186 Kbps\nWidth                                    : 640 pixels\nHeight                                   : 272 pixels\nDisplay aspect ratio                     : 2.35:1\nFrame rate                               : 29.970 fps\nColor space                              : YUV\nChroma subsampling                       : 4:2:0\nBit depth                                : 8 bits\nScan type                                : Progressive\nCompression mode                         : Lossy\nBits/(Pixel*Frame)                       : 0.227\nStream size                              : 1.00 GiB (72%)\nWriting library                          : XviD 1.2.1 (UTC 2008-12-04)\n\nAudio\nID                                       : 1\nFormat                                   : AC-3\nFormat/Info                              : Audio Coding 3\nMode extension                           : CM (complete main)\nCodec ID                                 : 2000\nDuration                                 : 2h 1mn\nBit rate mode                            : Constant\nBit rate                                 : 448 Kbps\nChannel(s)                               : 6 channels\nChannel positions                        : Front: L C R, Side: L R, LFE\nSampling rate                            : 48.0 KHz\nBit depth                                : 16 bits\nCompression mode                         : Lossy\nStream size                              : 388 MiB (27%)\nAlignment                                : Aligned on interleaves\nInterleave, duration                     : 33 ms (1.00 video frame)\nInterleave, preload duration             : 512 ms\n\n   \nPlot:\n\nPlagued by a series of apocalyptic visions, a young husband and father \nquestions whether to shelter his family from a coming storm, or from himself.\n\n\nPoster:\n\n &lt;a href=&quot;\nhttp://i.imgur.com/RLEM2.jpg&quot; rel=&quot;nofollow&quot; target=&quot;_NEW&quot;&gt;\nhttp://i.imgur.com/RLEM2.jpg&lt;/a&gt;\n\n\nScreens:\n\n &lt;a href=&quot;\nhttp://i.imgur.com/kzF17.png&quot; rel=&quot;nofollow&quot; target=&quot;_NEW&quot;&gt;\nhttp://i.imgur.com/kzF17.png&lt;/a&gt;\n\n &lt;a href=&quot;\nhttp://i.imgur.com/7vgvn.png&quot; rel=&quot;nofollow&quot; target=&quot;_NEW&quot;&gt;\nhttp://i.imgur.com/7vgvn.png&lt;/a&gt;\n\n &lt;a href=&quot;\nhttp://i.imgur.com/52LC1.png&quot; rel=&quot;nofollow&quot; target=&quot;_NEW&quot;&gt;\nhttp://i.imgur.com/52LC1.png&lt;/a&gt;\n\n\nENJOY!","torrent":{"xt":"urn:btih:673191cb806155b1ad035e4708c3f790cf34405f","amp;dn":"Take+Shelter+2011+LiMiTED+DvDRip+XviD+Ac3+Feel-Free","amp;tr":["udp%3A%2F%2Ftracker.openbittorrent.com%3A80","udp%3A%2F%2Fopen.demonii.com%3A1337","udp%3A%2F%2Ftracker.coppersurfer.tk%3A6969","udp%3A%2F%2Fexodus.desync.com%3A6969"],"infoHash":"673191cb806155b1ad035e4708c3f790cf34405f","infoHashBuffer":{"type":"Buffer","data":[103,49,145,203,128,97,85,177,173,3,94,71,8,195,247,144,207,52,64,95]},"announce":[],"urlList":[]}}